<?xml version="1.0" encoding="utf-8"?>
<!-- Generator: Adobe Illustrator 14.0.0, SVG Export Plug-In . SVG Version: 6.00 Build 43363)  -->
<!DOCTYPE svg PUBLIC "-//W3C//DTD SVG 1.1//EN" "http://www.w3.org/Graphics/SVG/1.1/DTD/svg11.dtd">
<svg version="1.1"
	 id="svg2989" xmlns:dc="http://purl.org/dc/elements/1.1/" xmlns:svg="http://www.w3.org/2000/svg" xmlns:sodipodi="http://sodipodi.sourceforge.net/DTD/sodipodi-0.dtd" xmlns:cc="http://creativecommons.org/ns#" xmlns:rdf="http://www.w3.org/1999/02/22-rdf-syntax-ns#" xmlns:inkscape="http://www.inkscape.org/namespaces/inkscape" inkscape:version="0.48.0 r9654" sodipodi:docname="400x400px-kilogram_weight.png"
	 xmlns="http://www.w3.org/2000/svg" xmlns:xlink="http://www.w3.org/1999/xlink" x="0px" y="0px" width="400px" height="400px"
	 viewBox="0 0 400 400" enable-background="new 0 0 400 400" xml:space="preserve">
<path d="M192,0c5.667,0,11.333,0,17,0c51.658,4.096,86.839,67.311,58,116h69c0,0,41.751,188.916,64,282c0,0.667,0,1.333,0,2
	c-112.846,0-232.753,0-350,0c-17.075,0-40.093,1.56-50-2c23.337-92.996,67-282,67-282h66C106.451,68.814,139.033,3.568,192,0z
	 M158,84.998c10.819,51.913,94.877,39.687,85-19c-3.434-20.396-23.787-36.085-48-33C170.673,36.097,152.289,57.591,158,84.998z"/>
<g>
	<path fill="#FFFFFF" d="M88.16,191.915h38.543v70.114l28.166-32.683h46.418l-35.3,34.466l37.339,63.93h-42.489l-19.928-39.438
		l-14.207,13.867v25.571H88.16V191.915z"/>
	<path fill="#FFFFFF" d="M283.191,229.347h35.301v92.93l0.092,4.354c0,6.178-1.312,12.061-3.938,17.65s-6.115,10.115-10.47,13.574
		s-9.883,5.96-16.585,7.504c-6.701,1.545-14.376,2.316-23.023,2.316c-19.766,0-33.339-2.965-40.721-8.895
		c-7.381-5.93-11.071-13.867-11.071-23.812c0-1.235,0.062-2.903,0.185-5.003l36.598,4.17c0.927,3.396,2.348,5.744,4.262,7.041
		c2.78,1.914,6.27,2.872,10.471,2.872c5.436,0,9.496-1.452,12.184-4.354c2.687-2.903,4.029-7.969,4.029-15.195v-14.916
		c-3.705,4.385-7.412,7.566-11.117,9.543c-5.807,3.088-12.076,4.633-18.809,4.633c-13.156,0-23.781-5.745-31.872-17.234
		c-5.745-8.152-8.616-18.932-8.616-32.335c0-15.318,3.705-26.992,11.117-35.022c7.412-8.029,17.11-12.045,29.094-12.045
		c7.658,0,13.975,1.298,18.947,3.893c4.972,2.594,9.619,6.887,13.943,12.878V229.347z M247.706,277.062
		c0,7.104,1.513,12.369,4.54,15.797c3.026,3.429,7.01,5.143,11.951,5.143c4.695,0,8.633-1.775,11.813-5.328
		c3.181-3.551,4.772-8.909,4.772-16.074s-1.668-12.646-5.004-16.445s-7.412-5.699-12.23-5.699c-4.817,0-8.662,1.746-11.535,5.235
		C249.143,263.18,247.706,268.97,247.706,277.062z"/>
</g>
</svg>
